<svg width="324" height="102" viewBox="0 0 324 102" fill="none" xmlns="http://www.w3.org/2000/svg">
<path d="M111.108 32.5547C111.108 50.5439 133.83 65.145 161.779 65.145C189.728 65.145 212.472 50.5439 212.472 32.5547C212.472 14.5654 189.777 0 161.779 0C133.781 0 111.108 14.5868 111.108 32.5832" fill="#2B4E9D"/>
<path d="M115.851 32.5546C115.851 48.8676 136.443 62.0849 161.779 62.0849C187.115 62.0849 207.714 48.8676 207.714 32.5546C207.714 16.2416 187.122 3.03857 161.779 3.03857C136.436 3.03857 115.851 16.2416 115.851 32.5546" fill="white"/>
<path d="M120.609 32.5546C120.609 47.17 139.071 59.0249 161.793 59.0249C184.516 59.0249 202.978 47.17 202.978 32.5546C202.978 17.9392 184.516 6.07007 161.793 6.07007C139.071 6.07007 120.609 17.9321 120.609 32.5546" fill="#35A9E1"/>
<path d="M161.779 32.5546C161.779 40.7147 172.075 47.3198 184.743 47.3198C197.411 47.3198 207.714 40.7147 207.714 32.5546C207.714 24.3946 197.425 17.8323 184.743 17.8323C172.061 17.8323 161.779 24.4374 161.779 32.5903" fill="white"/>
<path d="M166.537 32.5546C166.537 39.0313 174.695 44.274 184.743 44.274C194.791 44.274 202.949 39.0313 202.949 32.5546C202.949 26.0779 194.805 20.8495 184.743 20.8495C174.681 20.8495 166.537 26.0708 166.537 32.5546" fill="#2B4E9D"/>
<path d="M192.234 80.495C192.228 80.7304 192.27 80.9646 192.358 81.183C192.446 81.4014 192.578 81.5993 192.745 81.7646C192.912 81.9298 193.111 82.0587 193.33 82.1434C193.548 82.2281 193.782 82.2667 194.017 82.2568V82.2568C194.363 82.247 194.699 82.1348 194.982 81.9342C195.265 81.7336 195.483 81.4536 195.608 81.1293C195.734 80.8049 195.761 80.4505 195.687 80.1105C195.613 79.7706 195.441 79.4601 195.192 79.218C194.943 78.9758 194.629 78.8128 194.288 78.7493C193.947 78.6858 193.596 78.7246 193.277 78.861C192.958 78.9973 192.687 79.225 192.496 79.5157C192.306 79.8063 192.205 80.147 192.206 80.495" fill="#F7F7F7"/>
<path d="M80.0631 91.3797C79.1389 90.3461 78.6457 88.9951 78.6855 87.6064C78.6478 86.2095 79.1403 84.8504 80.0631 83.8046C81.0037 82.8814 82.2665 82.3645 83.5815 82.3645C84.8966 82.3645 86.1594 82.8814 87.1 83.8046C88.0236 84.8551 88.5137 86.2198 88.4704 87.6207C88.516 89.0065 88.0306 90.3571 87.1142 91.394C86.1756 92.3266 84.9088 92.8497 83.5886 92.8497C82.2685 92.8497 81.0016 92.3266 80.0631 91.394V91.3797ZM79.9566 79.6175C78.8961 80.0094 77.9288 80.6192 77.1163 81.4079C76.2945 82.178 75.6478 83.1171 75.2203 84.1612C74.7718 85.2635 74.545 86.4441 74.5529 87.6349C74.551 88.8225 74.7927 89.9977 75.2629 91.0873C75.6821 92.1343 76.3244 93.0765 77.1447 93.8477C77.9605 94.6305 78.9271 95.2373 79.985 95.6309C81.1236 96.0409 82.3259 96.2438 83.5354 96.2301C84.7609 96.2421 85.9792 96.0393 87.1355 95.6309C88.1961 95.2296 89.1631 94.6128 89.9758 93.8192C90.7897 93.0761 91.4319 92.1631 91.8575 91.1443C92.3293 90.0728 92.5712 88.9136 92.5676 87.7419C92.5833 86.5204 92.3564 85.3079 91.9001 84.1755C91.4608 83.1105 90.7999 82.1523 89.9616 81.3651C89.156 80.576 88.1858 79.9766 87.1213 79.6104C85.96 79.1907 84.734 78.9806 83.4999 78.9899C82.2751 78.9809 81.0577 79.181 79.8998 79.5819" fill="#F7F7F7"/>
<path d="M99.6472 78.5191C98.4034 78.4577 97.182 78.8675 96.2246 79.6675C95.7188 80.1187 95.3212 80.6791 95.0617 81.3066C94.8022 81.9342 94.6876 82.6126 94.7263 83.291V83.7547H92.8375V86.3082H94.7192V95.9947H98.8732V86.3082H101.181V83.7475H98.8732V83.2197C98.8505 83.0038 98.8727 82.7856 98.9384 82.5787C99.004 82.3719 99.1116 82.181 99.2544 82.0181C99.3972 81.8552 99.5721 81.7239 99.7681 81.6323C99.964 81.5408 100.177 81.4911 100.393 81.4864C100.784 81.4606 101.176 81.5065 101.55 81.6219V78.6831C101.074 78.5527 100.581 78.4879 100.087 78.4906H99.6401" fill="#F7F7F7"/>
<path d="M103.737 81.5863V83.8046H102.14V86.3867H103.737V91.7364C103.737 94.1046 104.376 94.8678 104.987 95.3956C105.79 95.9776 106.767 96.2669 107.756 96.2159C108.595 96.2398 109.433 96.1705 110.256 96.0091V93.1131C109.927 93.1607 109.594 93.1798 109.262 93.1701C108.552 93.1701 107.905 92.7493 107.905 91.3798V86.3867H110.597V83.8046H107.905V80.4949L103.737 81.5863Z" fill="#F7F7F7"/>
<path d="M152.953 89.8747C152.953 88.0701 153.279 86.3083 154.373 86.3083C155.325 86.3083 155.68 87.7348 155.68 89.8747C155.68 91.6151 155.424 93.4412 154.472 93.4412H154.408C153.336 93.4412 152.988 92.1002 152.988 89.8747H152.953ZM148.898 89.9318C148.898 93.7621 150.773 96.2159 154.302 96.2159C158.428 96.2159 159.848 93.0132 159.819 89.8319C159.819 86.1799 157.959 83.5692 154.408 83.5692C151.526 83.5692 148.905 85.6378 148.898 89.9318Z" fill="#F7F7F7"/>
<path d="M142.131 83.9687C141.585 84.2684 141.102 84.6732 140.711 85.1599H140.555C140.115 84.2398 139.213 83.555 137.594 83.555C136.958 83.5685 136.332 83.7188 135.759 83.9956C135.186 84.2725 134.678 84.6695 134.271 85.1599H134.114L133.887 83.7333H130.337C130.379 84.9816 130.443 86.3725 130.443 87.6992V95.9805H134.576V88.1343L134.761 87.3283C134.858 87.1067 135.017 86.918 135.218 86.7851C135.42 86.6523 135.656 86.5808 135.897 86.5794C136.841 86.5794 136.983 87.5637 136.969 88.2913V95.9591H141.073V88.1557L141.187 87.3996C141.273 87.1523 141.435 86.9386 141.649 86.7888C141.863 86.6391 142.119 86.5608 142.38 86.5651C143.225 86.5651 143.452 87.4282 143.452 88.705V95.9306H147.585V88.3982C147.585 85.4737 146.654 83.6049 144.034 83.555H143.906C143.292 83.5611 142.686 83.7023 142.131 83.9687" fill="#F7F7F7"/>
<path d="M182.975 89.9888C182.975 88.2769 183.479 86.6577 184.665 86.6577C184.871 86.6738 185.068 86.7498 185.232 86.8764C185.396 87.0031 185.52 87.175 185.588 87.371L185.744 88.2769V91.4867L185.602 92.3427C185.511 92.5468 185.365 92.7214 185.18 92.8473C184.996 92.9732 184.781 93.0454 184.558 93.056H184.516C183.6 93.056 183.01 91.9218 182.975 89.9746V89.9888ZM178.934 89.9746C178.934 92.6779 179.914 95.6809 183.096 95.8378C183.561 95.8738 184.029 95.7959 184.458 95.6109C184.887 95.4258 185.265 95.139 185.559 94.775H185.744V95.4241C185.744 96.9434 185.034 98.156 183.145 98.1275C182.28 98.1102 181.425 97.9413 180.617 97.6282L179.907 100.481C181.051 100.862 182.253 101.036 183.458 100.995C185.136 101.106 186.8 100.627 188.165 99.6397C189.344 98.6339 189.905 97.2359 189.926 94.8249V87.6706C189.926 86.3653 189.99 85.0314 190.068 83.7689H186.468L186.248 84.9744H186.057C185.836 84.5343 185.495 84.1665 185.074 83.9139C184.652 83.6613 184.168 83.5343 183.678 83.5478H183.614C180.965 83.5478 178.984 86.08 178.97 89.9674" fill="#F7F7F7"/>
<path d="M115.233 92.0645C115.233 90.538 116.689 90.0958 117.953 90.1315V92.1358L117.861 92.6636C117.726 93.3341 116.959 93.5481 116.526 93.5481C116.162 93.5154 115.824 93.343 115.583 93.0666C115.343 92.7903 115.217 92.4313 115.233 92.0645V92.0645ZM116.433 83.5763C114.99 83.6353 113.568 83.9542 112.237 84.5178V87.3282C113.195 86.8574 115.787 85.6377 117.257 86.6149C117.439 86.7138 117.587 86.8635 117.686 87.0459C117.784 87.2282 117.828 87.4353 117.811 87.6421V87.856C114.715 87.856 111.378 89.1043 111.378 92.414C111.344 92.9084 111.413 93.4044 111.581 93.8705C111.749 94.3365 112.011 94.7623 112.352 95.1206C112.693 95.479 113.104 95.7621 113.56 95.9519C114.016 96.1417 114.506 96.234 114.999 96.223C115.597 96.2469 116.192 96.1348 116.74 95.8952C117.289 95.6556 117.776 95.2946 118.166 94.8392H118.322L118.549 96.0161H122.199C122.047 95.097 121.978 94.1659 121.993 93.2343V88.8047C121.993 86.3795 121.333 84.8816 119.685 84.1113C118.789 83.7269 117.819 83.5467 116.845 83.5834H116.476" fill="#F7F7F7"/>
<path d="M170.975 89.8747C170.975 88.0701 171.301 86.3083 172.395 86.3083C173.339 86.3083 173.694 87.7348 173.694 89.8747C173.694 91.6151 173.453 93.4412 172.473 93.4412C171.394 93.4412 171.017 92.1002 171.053 89.8747H170.975ZM166.963 89.9318C166.963 93.7621 168.837 96.2159 172.373 96.2159C176.492 96.2159 177.891 93.0132 177.884 89.8319C177.841 86.1799 176.023 83.5692 172.459 83.5692C169.618 83.5692 166.963 85.6378 166.963 89.9318Z" fill="#F7F7F7"/>
<path d="M122.526 78.7331V80.4736H124.095V95.9948H128.249V78.7046L122.526 78.7331Z" fill="#F7F7F7"/>
<path d="M159.691 78.7331V80.4736H161.268V95.9948H165.429V78.7046L159.691 78.7331Z" fill="#F7F7F7"/>
<path d="M203.858 83.6406C199.995 83.7048 197.425 86.1443 197.382 90.0603C197.34 93.9762 199.697 96.2231 203.212 96.2445C204.025 96.2653 204.836 96.1643 205.619 95.9449V93.0918C204.927 93.2947 204.199 93.3361 203.489 93.213C202.939 93.0601 202.45 92.7376 202.092 92.291C201.734 91.8443 201.525 91.2961 201.493 90.7236C201.252 88.6979 201.934 86.8504 203.993 86.6935C204.621 86.7005 205.248 86.7553 205.868 86.8576V84.0044C205.246 83.7918 204.593 83.6857 203.936 83.6906H203.858" fill="#F7F7F7"/>
<path d="M210.753 92.0645C210.753 90.538 212.223 90.0958 213.48 90.1314V92.1358L213.38 92.6636C213.26 93.3341 212.493 93.5481 212.053 93.5481C211.687 93.5172 211.348 93.3454 211.106 93.0689C210.864 92.7924 210.737 92.4325 210.753 92.0645V92.0645ZM211.953 83.5763C210.51 83.6384 209.089 83.9572 207.757 84.5178V87.3282C208.708 86.8574 211.307 85.6377 212.777 86.6149C212.958 86.7148 213.107 86.8645 213.206 87.0465C213.306 87.2284 213.351 87.435 213.338 87.6421V87.856C210.249 87.856 206.905 89.1043 206.905 92.414C206.871 92.9096 206.94 93.4069 207.109 93.8739C207.278 94.3409 207.542 94.7674 207.884 95.126C208.226 95.4846 208.639 95.7674 209.097 95.9563C209.554 96.1452 210.046 96.236 210.54 96.223C211.136 96.2432 211.729 96.1295 212.276 95.89C212.823 95.6506 213.309 95.2916 213.7 94.8392H213.849L214.069 96.0161H217.755C217.596 95.0978 217.532 94.1657 217.563 93.2343L217.527 88.8047C217.527 86.3795 216.853 84.8816 215.22 84.1113C214.311 83.7245 213.329 83.5442 212.344 83.5834H211.953" fill="#F7F7F7"/>
<path d="M196.189 83.7546H192.014V96.0019H196.189V83.7546Z" fill="#F7F7F7"/>
<path d="M226.836 90.1101C226.816 89.3906 226.888 88.6715 227.049 87.9702C227.305 87.1571 227.759 86.615 228.377 86.615C228.995 86.615 229.329 87.1927 229.485 87.7277L229.535 88.4053V91.6579L229.385 92.5068C229.303 92.7132 229.163 92.8909 228.981 93.0178C228.799 93.1446 228.584 93.2149 228.363 93.22C227.603 93.22 226.836 92.357 226.836 90.1101V90.1101ZM229.535 78.6974V84.7033H229.329C229.15 84.3127 228.852 83.9898 228.478 83.7819C228.103 83.5739 227.672 83.4919 227.248 83.5478C224.855 83.5478 222.831 85.4024 222.739 89.7392C222.675 92.9205 223.897 96.1588 227 96.1588C227.564 96.1677 228.121 96.0315 228.618 95.7631C229.115 95.4947 229.536 95.103 229.84 94.6252H230.003L230.23 95.9662H233.781C233.724 94.6466 233.667 93.2985 233.667 91.9932V78.6689H229.535" fill="#F7F7F7"/>
<path d="M240.463 86.2441C241.578 86.2441 241.947 87.5709 241.883 88.9333H238.893C238.893 87.5067 239.383 86.2441 240.47 86.2441H240.463ZM234.924 90.2457C234.924 94.1617 237.054 96.216 240.953 96.216C242.306 96.2326 243.654 96.0548 244.958 95.6881V93.0276C243.9 93.2907 242.816 93.4343 241.727 93.4555C240.072 93.4555 238.936 92.8207 238.886 91.4797H245.462C245.568 90.8532 245.61 90.2175 245.589 89.5823C245.589 85.538 243.686 83.6406 240.683 83.6406C237.445 83.6406 234.917 86.0159 234.917 90.2671" fill="#F7F7F7"/>
<path d="M245.298 78.7331L245.313 80.4736H246.868V95.9948H251.022V78.7046L245.298 78.7331Z" fill="#F7F7F7"/>
<path d="M305.279 92.5353L305.087 91.5652V88.4481L305.158 87.7348C305.192 87.4518 305.321 87.1888 305.524 86.9892C305.726 86.7895 305.991 86.6651 306.273 86.6364C306.891 86.6364 307.381 87.0786 307.615 87.906C307.796 88.6188 307.875 89.3537 307.849 90.0887C307.849 92.3356 307.068 93.2129 306.287 93.2129C306.067 93.2107 305.853 93.1413 305.673 93.0139C305.492 92.8866 305.355 92.7072 305.279 92.4996V92.5353ZM300.969 78.6903V92.1145C300.969 93.4555 300.933 94.6681 300.898 95.9734H304.398L304.633 94.5967H304.803C305.019 95.0293 305.341 95.3996 305.738 95.6729C306.136 95.9461 306.596 96.1134 307.075 96.1588C307.972 96.2427 308.87 96.0135 309.617 95.5097C311.229 94.3827 311.954 92.0503 311.954 89.7107C311.954 85.4666 310.37 83.4979 308.041 83.5336C307.509 83.524 306.982 83.6442 306.506 83.884C306.029 84.1237 305.618 84.4759 305.307 84.9102H305.13V78.6903H300.997" fill="#F7F7F7"/>
<path d="M289.913 85.5022H289.685L289.458 83.7547H285.908C285.95 85.0243 286.028 86.5151 286.028 87.8204V95.9948H290.19V89.9389C290.184 89.4986 290.258 89.0611 290.41 88.6478C290.572 88.2254 290.859 87.8627 291.232 87.6078C291.605 87.353 292.046 87.2182 292.497 87.2213C292.782 87.2129 293.067 87.2248 293.349 87.2569V83.5906C293.082 83.5436 292.811 83.5221 292.54 83.5264H292.476C291.539 83.5264 290.587 84.1826 289.913 85.4737" fill="#F7F7F7"/>
<path d="M258.776 81.2368C257.885 82.0414 257.182 83.0345 256.719 84.1446C256.257 85.2547 256.044 86.4541 256.099 87.6564C256.096 88.8578 256.338 90.0471 256.809 91.1515C257.258 92.1855 257.924 93.1101 258.761 93.862C259.562 94.6099 260.504 95.1895 261.531 95.5668C262.733 96.0124 264.005 96.2395 265.287 96.2373C266.463 96.2625 267.637 96.1354 268.781 95.8593C269.945 95.565 271.064 95.1164 272.111 94.5254V91.3798C271.094 91.7666 270.056 92.0929 269.001 92.357C267.971 92.6381 266.914 92.8078 265.848 92.8634C265.127 92.908 264.404 92.8044 263.724 92.5592C263.044 92.3139 262.421 91.932 261.893 91.4368C261.411 90.9447 261.03 90.3619 260.773 89.7217C260.516 89.0815 260.387 88.3966 260.395 87.7063C260.376 86.9629 260.487 86.2219 260.721 85.5165C260.954 84.8358 261.343 84.2198 261.857 83.719C262.446 83.1868 263.135 82.7803 263.885 82.524C264.634 82.2677 265.428 82.1671 266.217 82.2282C266.796 82.2398 267.373 82.2971 267.943 82.3994C268.333 82.485 268.546 82.5064 268.795 82.5706V84.1684H271.919V80.2168C270.999 79.7766 270.032 79.4439 269.036 79.2253C268.015 78.9818 266.969 78.8573 265.919 78.8544C262.965 78.8544 260.558 79.6604 258.754 81.2653" fill="#F7F7F7"/>
<path d="M277.273 92.0645C277.273 90.538 278.743 90.0958 279.979 90.1315V92.1358L279.9 92.6636C279.807 92.9388 279.625 93.1749 279.383 93.335C279.142 93.4951 278.854 93.57 278.565 93.5481C278.201 93.5154 277.864 93.343 277.623 93.0666C277.382 92.7903 277.257 92.4313 277.273 92.0645ZM278.48 83.5763C277.035 83.6383 275.611 83.9571 274.277 84.5178V87.3282C275.221 86.8574 277.827 85.6377 279.29 86.6149C279.469 86.7165 279.616 86.8667 279.714 87.0484C279.812 87.2301 279.857 87.4359 279.844 87.6421V87.856C276.748 87.856 273.453 89.1043 273.453 92.414C273.419 92.909 273.489 93.4057 273.657 93.8722C273.825 94.3387 274.088 94.7648 274.43 95.1233C274.771 95.4818 275.184 95.7648 275.64 95.9541C276.097 96.1435 276.588 96.235 277.081 96.223C277.668 96.2469 278.252 96.1374 278.791 95.9027C279.329 95.6681 279.808 95.3143 280.192 94.8677H280.362L280.596 96.0446H284.26C284.106 95.1256 284.033 94.1948 284.04 93.2628V88.8333C284.04 86.4081 283.394 84.9102 281.747 84.1398C280.839 83.7523 279.856 83.572 278.871 83.612H278.502" fill="#F7F7F7"/>
<path d="M298.81 83.7546H294.642V96.0019H298.81V83.7546Z" fill="#F7F7F7"/>
<path d="M295.004 80.495C294.994 80.7303 295.033 80.9651 295.118 81.1845C295.203 81.4038 295.334 81.6028 295.5 81.7687C295.667 81.9346 295.866 82.0637 296.085 82.1477C296.304 82.2318 296.538 82.2689 296.772 82.2568V82.2568C297.012 82.2721 297.253 82.2379 297.479 82.1561C297.706 82.0743 297.913 81.9467 298.089 81.7813C298.264 81.6159 298.404 81.4161 298.5 81.1942C298.595 80.9723 298.645 80.7331 298.645 80.4914C298.645 80.2496 298.595 80.0104 298.5 79.7886C298.404 79.5667 298.264 79.3669 298.089 79.2014C297.913 79.036 297.706 78.9085 297.479 78.8267C297.253 78.7449 297.012 78.7106 296.772 78.726C296.535 78.7108 296.297 78.7458 296.074 78.8288C295.852 78.9117 295.649 79.0408 295.479 79.2075C295.309 79.3743 295.175 79.575 295.087 79.7968C295 80.0186 294.959 80.2564 294.968 80.495" fill="#F7F7F7"/>
<path d="M318.436 86.2441C319.544 86.2441 319.927 87.5709 319.856 88.9333H316.86C316.86 87.5067 317.336 86.2441 318.422 86.2441H318.436ZM312.876 90.2457C312.876 94.1617 315.007 96.216 318.912 96.216C320.258 96.2324 321.6 96.0547 322.896 95.6881V93.0276C321.845 93.2923 320.769 93.4359 319.686 93.4555C318.046 93.4555 316.917 92.8207 316.846 91.4797H323.4C323.525 90.8555 323.572 90.2183 323.542 89.5824C323.542 85.538 321.639 83.6406 318.621 83.6406C315.39 83.6406 312.862 86.0159 312.862 90.2671" fill="#F7F7F7"/>
<path d="M2.70023 81.2368C1.8031 82.0372 1.09575 83.0292 0.630061 84.1401C0.164376 85.2509 -0.0478264 86.4524 0.00902922 87.6564C0.00353676 88.8581 0.245283 90.048 0.719108 91.1515C1.15912 92.189 1.82377 93.1149 2.66473 93.862C3.46673 94.6084 4.40793 95.1878 5.43403 95.5668C6.63692 96.0112 7.90865 96.2383 9.19034 96.2373C10.3685 96.2605 11.5447 96.1335 12.691 95.8592C13.8536 95.5674 14.9715 95.1187 16.0142 94.5254V91.3798C14.9999 91.7665 13.9637 92.0928 12.9112 92.357C11.882 92.642 10.8247 92.8119 9.75841 92.8634C9.03815 92.9099 8.31606 92.8073 7.63693 92.5619C6.95779 92.3165 6.33608 91.9336 5.81037 91.4368C5.3227 90.9467 4.9396 90.3618 4.68444 89.718C4.42928 89.0741 4.30742 88.3848 4.32631 87.6921C4.30142 86.9482 4.41211 86.2061 4.65294 85.5022C4.88541 84.8232 5.27194 84.2079 5.78197 83.7048C6.37242 83.1715 7.06464 82.7643 7.81657 82.508C8.5685 82.2518 9.36444 82.1517 10.156 82.214C10.7324 82.2263 11.3069 82.2835 11.8744 82.3852C12.2863 82.4708 12.4638 82.4922 12.7123 82.5564V84.1684H15.8367V80.2168C14.9305 79.7788 13.9776 79.4461 12.9964 79.2253C11.9794 78.9839 10.9383 78.8594 9.89332 78.8544C6.91809 78.8544 4.51803 79.6604 2.71443 81.2653" fill="#F7F7F7"/>
<path d="M28.4478 83.7546H24.308V96.0019H28.4478V83.7546Z" fill="#F7F7F7"/>
<path d="M37.7638 83.555C37.1225 83.5425 36.4871 83.6811 35.9088 83.9598C35.3304 84.2385 34.8252 84.6496 34.4335 85.1599H34.2631L34.0359 83.7333H30.4855C30.5423 84.9887 30.592 86.294 30.592 87.6136V95.9805H34.7389V88.6479C34.7327 88.2143 34.825 87.7849 35.0087 87.3925C35.112 87.1797 35.2724 87.0001 35.4719 86.8741C35.6714 86.748 35.9021 86.6805 36.1377 86.6792C36.9898 86.6792 37.3449 87.471 37.3449 88.3412V96.0233H41.4988V88.2912C41.4988 85.6449 40.6325 83.555 37.8206 83.555H37.778" fill="#F7F7F7"/>
<path d="M55.5655 83.6406C51.7027 83.7048 49.1322 86.1443 49.0754 90.0603C49.0186 93.9762 51.4045 96.2231 54.8981 96.2445C55.7132 96.2675 56.5272 96.1665 57.3123 95.9449V93.0918C56.6347 93.2913 55.9207 93.3328 55.2247 93.213C54.6701 93.0649 54.1763 92.7443 53.8141 92.2972C53.4519 91.85 53.2397 91.2992 53.2081 90.7236C52.9808 88.6979 53.6554 86.8504 55.7289 86.6935C56.3592 86.7022 56.9881 86.7571 57.6106 86.8576V84.0044C56.9831 83.7949 56.3261 83.6889 55.6649 83.6906H55.5655" fill="#F7F7F7"/>
<path d="M62.4037 92.0645C62.4037 90.538 63.8593 90.0958 65.1162 90.1315V92.1358L65.0239 92.6636C64.8961 93.3341 64.1363 93.5481 63.696 93.5481C63.3319 93.5154 62.9944 93.343 62.7537 93.0666C62.513 92.7903 62.3876 92.4313 62.4037 92.0645ZM63.6108 83.5763C62.1671 83.6353 60.7457 83.9542 59.4143 84.5178V87.3282C60.3587 86.8574 62.9646 85.6377 64.3848 86.6149C64.5689 86.7118 64.7208 86.8606 64.8218 87.0431C64.9227 87.2257 64.9683 87.4338 64.9529 87.6421V87.856C61.8569 87.856 58.5125 89.1043 58.5125 92.414C58.4786 92.9102 58.5484 93.4081 58.7175 93.8757C58.8866 94.3432 59.1511 94.77 59.4942 95.1287C59.8372 95.4874 60.2512 95.7701 60.7095 95.9585C61.1677 96.147 61.6602 96.2371 62.1552 96.223C62.7491 96.2431 63.34 96.1292 63.8843 95.8898C64.4287 95.6503 64.9127 95.2913 65.3008 94.8392H65.4641L65.6771 96.0161H69.3696C69.211 95.0977 69.1397 94.1662 69.1565 93.2343V88.8047C69.1565 86.3795 68.5033 84.8816 66.863 84.1113C65.9529 83.7225 64.9681 83.5422 63.9801 83.5834H63.6108" fill="#F7F7F7"/>
<path d="M47.7831 83.7546H43.622V96.0019H47.7831V83.7546Z" fill="#F7F7F7"/>
<path d="M16.4261 78.7331V80.4736H17.9954V95.9948H22.1493V78.7046L16.4261 78.7331Z" fill="#F7F7F7"/>
<path d="M43.8919 80.495C43.888 80.7283 43.9312 80.9601 44.0189 81.1762C44.1067 81.3922 44.2371 81.5882 44.4024 81.7522C44.5677 81.9162 44.7643 82.0449 44.9805 82.1304C45.1966 82.2159 45.4278 82.2565 45.66 82.2497C46.0097 82.2454 46.3503 82.1371 46.6386 81.9385C46.927 81.7398 47.1503 81.4597 47.2802 81.1335C47.4101 80.8074 47.4408 80.4499 47.3684 80.1062C47.2961 79.7626 47.1239 79.4482 46.8737 79.2028C46.6235 78.9574 46.3064 78.7921 45.9627 78.7277C45.6189 78.6633 45.2638 78.7028 44.9424 78.8411C44.621 78.9794 44.3476 79.2104 44.1568 79.5048C43.966 79.7992 43.8665 80.1438 43.8706 80.495" fill="#F7F7F7"/>
</svg>
