<svg width="39" height="39" viewBox="0 0 39 39" fill="none" xmlns="http://www.w3.org/2000/svg">
<g clip-path="url(#clip0_244:34075)">
<path d="M6 0.5C4.27609 0.5 2.62279 1.18482 1.40381 2.40381C0.18482 3.62279 -0.5 5.27609 -0.5 7V33C-0.5 34.7239 0.18482 36.3772 1.40381 37.5962C2.62279 38.8152 4.27609 39.5 6 39.5H16.8333C17.408 39.5 17.9591 39.2717 18.3654 38.8654C18.7717 38.4591 19 37.908 19 37.3333C19 36.7587 18.7717 36.2076 18.3654 35.8013C17.9591 35.3949 17.408 35.1667 16.8333 35.1667H6C5.42536 35.1667 4.87426 34.9384 4.46794 34.5321C4.06161 34.1257 3.83333 33.5746 3.83333 33V7C3.83333 6.42536 4.06161 5.87426 4.46794 5.46794C4.87426 5.06161 5.42536 4.83333 6 4.83333H16.8333C17.408 4.83333 17.9591 4.60506 18.3654 4.19873C18.7717 3.7924 19 3.2413 19 2.66667C19 2.09203 18.7717 1.54093 18.3654 1.1346C17.9591 0.728273 17.408 0.5 16.8333 0.5H6Z" fill="#F7F7F7"/>
<path d="M26.1348 9.80155C26.5411 9.39536 27.0921 9.16718 27.6667 9.16718C28.2412 9.16718 28.7922 9.39536 29.1985 9.80155L37.8652 18.4682C38.2714 18.8745 38.4995 19.4255 38.4995 20C38.4995 20.5746 38.2714 21.1256 37.8652 21.5319L29.1985 30.1985C28.7899 30.5932 28.2426 30.8116 27.6745 30.8067C27.1064 30.8017 26.5629 30.5739 26.1612 30.1722C25.7595 29.7704 25.5316 29.227 25.5267 28.6589C25.5218 28.0908 25.7402 27.5435 26.1348 27.1349L31.103 22.1667H14.6667C14.092 22.1667 13.5409 21.9384 13.1346 21.5321C12.7283 21.1258 12.5 20.5747 12.5 20C12.5 19.4254 12.7283 18.8743 13.1346 18.468C13.5409 18.0617 14.092 17.8334 14.6667 17.8334H31.103L26.1348 12.8652C25.7286 12.4589 25.5005 11.9079 25.5005 11.3334C25.5005 10.7589 25.7286 10.2079 26.1348 9.80155V9.80155Z" fill="#F7F7F7"/>
</g>
<defs>
<clipPath id="clip0_244:34075">
<rect width="39" height="39" fill="white"/>
</clipPath>
</defs>
</svg>
