<svg width="46" height="39" viewBox="0 0 46 39" fill="none" xmlns="http://www.w3.org/2000/svg">
<g clip-path="url(#clip0)">
<path d="M45.3407 36.299C45.3407 36.9673 45.0752 37.6082 44.6026 38.0808C44.1301 38.5534 43.4891 38.8188 42.8208 38.8188H2.50325C1.83494 38.8188 1.19401 38.5534 0.721445 38.0808C0.248882 37.6082 -0.0166016 36.9673 -0.0166016 36.299V2.70101C-0.0166016 2.03271 0.248882 1.39177 0.721445 0.919212C1.19401 0.446649 1.83494 0.181166 2.50325 0.181166C3.17155 0.181166 3.81248 0.446649 4.28505 0.919212C4.75761 1.39177 5.02309 2.03271 5.02309 2.70101V23.4965L14.1611 14.3585C14.6337 13.8859 15.2746 13.6205 15.9429 13.6205C16.6111 13.6205 17.252 13.8859 17.7246 14.3585L22.6624 19.2961L33.3781 8.58066H31.0619C30.3936 8.58066 29.7527 8.31518 29.2801 7.84261C28.8076 7.37005 28.5421 6.72912 28.5421 6.06081C28.5421 5.39251 28.8076 4.75157 29.2801 4.27901C29.7527 3.80645 30.3936 3.54096 31.0619 3.54096H39.4614L39.4709 3.54138C39.5507 3.5418 39.6303 3.54586 39.7099 3.55356C39.7483 3.55734 39.7854 3.56448 39.8237 3.56994C39.8671 3.57624 39.9106 3.58128 39.9539 3.58968C39.9961 3.59808 40.0372 3.60984 40.0788 3.62034C40.117 3.63 40.1554 3.63819 40.193 3.64974C40.2333 3.66192 40.2724 3.67703 40.3117 3.6911C40.3499 3.70475 40.3885 3.71735 40.4261 3.7331C40.4627 3.74822 40.4975 3.76586 40.5332 3.78266C40.5723 3.80114 40.6115 3.81836 40.6495 3.83872C40.6831 3.85678 40.7153 3.87757 40.7482 3.8971C40.786 3.91957 40.8243 3.9412 40.861 3.96556C40.8965 3.98929 40.9297 4.01574 40.9637 4.04115C40.9956 4.06488 41.0281 4.08714 41.0592 4.11255C41.1191 4.16169 41.176 4.21376 41.2312 4.26794C41.2352 4.27172 41.2396 4.27508 41.2434 4.27907C41.2476 4.28327 41.2507 4.28747 41.2547 4.29167C41.3089 4.34626 41.361 4.40359 41.4101 4.46323C41.4353 4.49431 41.4576 4.52685 41.4813 4.55856C41.5065 4.59258 41.533 4.62576 41.5565 4.66104C41.5817 4.69862 41.6035 4.73726 41.6262 4.7759C41.6453 4.80803 41.6657 4.83931 41.6833 4.87249C41.7043 4.91134 41.722 4.95124 41.7404 4.99093C41.757 5.02578 41.7744 5.06022 41.7891 5.09592C41.8053 5.13456 41.8181 5.17403 41.832 5.21309C41.8458 5.25173 41.8605 5.28953 41.8725 5.32859C41.8845 5.36827 41.8933 5.40838 41.9032 5.44849C41.9132 5.48818 41.9244 5.52744 41.9326 5.56776C41.9416 5.61417 41.9473 5.661 41.9538 5.70782C41.9588 5.74247 41.9653 5.7767 41.9687 5.81177C41.9771 5.89492 41.9813 5.97829 41.9813 6.06165V14.4603C41.9813 15.1286 41.7158 15.7695 41.2432 16.2421C40.7707 16.7147 40.1297 16.9802 39.4614 16.9802C38.7931 16.9802 38.1522 16.7147 37.6796 16.2421C37.2071 15.7695 36.9416 15.1286 36.9416 14.4603V12.1441L24.4444 24.6415C23.9718 25.1141 23.3309 25.3795 22.6627 25.3795C21.9944 25.3795 21.3535 25.1141 20.8809 24.6415L15.9429 19.7039L5.02309 30.6239V33.7791H42.8208C43.4891 33.7791 44.1301 34.0446 44.6026 34.5172C45.0752 34.9897 45.3407 35.6307 45.3407 36.299Z" fill="#F7F7F7"/>
</g>
<defs>
<clipPath id="clip0">
<rect width="45.3243" height="39" fill="white"/>
</clipPath>
</defs>
</svg>
