<svg width="191" height="57" viewBox="0 0 191 57" fill="none" xmlns="http://www.w3.org/2000/svg">
<g clip-path="url(#clip0)">
<path fill-rule="evenodd" clip-rule="evenodd" d="M94.7671 34.963C99.8771 34.963 104.103 34.3703 108.55 32.5386C110.772 31.6212 113.719 29.9944 115.394 28.3393C115.835 27.9042 116.917 26.9426 117.179 26.3815C116.026 26.599 113.941 28.0461 109.394 28.0461C105.956 28.0461 102.631 27.3367 100.102 25.8392C94.0639 22.2704 93.9545 16.3813 100.002 12.7368C103.824 10.4259 109.397 9.95614 113.86 11.028C115.033 11.3414 116.182 11.7407 117.298 12.2229C115.607 9.70078 111.638 7.22595 108.672 6.01533C99.6458 2.33303 87.6538 2.67982 79.3278 7.54752C68.5329 13.8528 68.5797 24.6286 79.1841 30.8772C83.247 33.2669 89.1383 34.9756 94.7796 34.9756" fill="#19A4DE"/>
<path fill-rule="evenodd" clip-rule="evenodd" d="M93.717 1.77811C89.7603 2.13752 88.0382 2.19426 84.144 3.35444C81.4231 4.14452 78.8241 5.31162 76.4213 6.82236C72.749 9.1774 67.439 14.0735 68.5485 21.0944C69.458 26.8386 74.4367 30.896 78.8903 33.1092C84.2034 35.7606 90.5854 37.0626 97.4674 36.76C105.94 36.388 115.954 33.0398 120.426 26.2806C121.989 23.9318 123.08 21.044 122.542 17.5004C121.68 11.7941 116.582 7.54117 112.244 5.44465C109.592 4.14077 106.787 3.18001 103.896 2.58519C101.055 1.98934 96.7924 1.51014 93.717 1.78757V1.77811ZM94.7671 34.9724C89.1415 34.9724 83.2283 33.2763 79.1716 30.874C68.5672 24.6286 68.5203 13.8496 79.3153 7.54432C87.6413 2.67662 99.6302 2.32983 108.659 6.01213C111.625 7.22275 115.595 9.69128 117.285 12.2197C116.17 11.7375 115.021 11.3382 113.847 11.0249C109.384 9.95295 103.812 10.4227 99.9896 12.7336C93.942 16.3844 94.0514 22.2672 100.09 25.836C102.618 27.3304 105.95 28.0429 109.381 28.0429C113.929 28.0429 116.013 26.5958 117.167 26.3783C116.904 26.9395 115.823 27.901 115.382 28.3361C113.707 29.9912 110.76 31.618 108.537 32.5354C104.103 34.3703 99.8771 34.963 94.7671 34.963V34.9724ZM107.269 12.4183C117.098 11.296 123.761 18.7426 117.36 23.7395C111.813 28.0744 100.73 26.4729 98.6676 20.9935C97.5768 18.0931 99.3926 15.9115 100.815 14.8143C102.437 13.5627 104.734 12.6989 107.275 12.4089L107.269 12.4183Z" fill="white"/>
<path fill-rule="evenodd" clip-rule="evenodd" d="M93.2919 0H97.7424C98.9926 0.0378319 100.146 0.10719 100.949 0.211227C108.266 1.15702 115.638 3.62871 120.883 8.91256C121.023 9.05127 121.142 9.15216 121.267 9.30033C121.392 9.44851 121.42 9.52102 121.58 9.68811C122.507 10.7013 123.303 11.8296 123.949 13.0457C125.199 15.5867 125.486 16.9266 125.486 19.8806C125.486 22.882 123.595 26.744 121.695 28.7081C121.583 28.8293 121.478 28.9578 121.383 29.0927C120.665 29.8461 119.908 30.5596 119.114 31.2302C118.01 32.1063 116.849 32.9057 115.638 33.6231C114.531 34.2757 113.383 34.8539 112.2 35.3539C109.322 36.7127 105.637 37.5828 102.512 38.0904C101.652 38.2291 100.765 38.3331 99.9177 38.4214C97.73 38.6516 96.0548 38.5885 93.8451 38.5885C93.2451 38.5885 92.8919 38.5254 92.3825 38.5128C90.1166 38.4529 85.5817 37.6049 83.6158 37.0279C81.4015 36.4097 79.2468 35.5919 77.1776 34.5846C75.7587 33.8973 73.0084 32.1728 71.7957 31.082L70.6143 30.0353C70.2479 29.6789 69.9015 29.3021 69.5767 28.9067C68.8589 28.114 68.2125 27.2583 67.6453 26.3499C66.2608 24.1368 65.5471 21.564 65.5919 18.9475C65.5919 15.7191 67.0296 12.8849 68.7923 10.5267C68.9959 10.244 69.2194 9.97637 69.4611 9.72594C70.2299 8.963 69.833 9.22151 70.9237 8.2505C71.6535 7.55462 72.4304 6.91097 73.249 6.32422L74.9617 5.17981C76.8219 4.07074 78.7793 3.13676 80.8093 2.38971C83.0322 1.60588 85.3123 0.997686 87.6288 0.57063C88.4976 0.419302 89.1915 0.337335 90.1291 0.217534C90.9229 0.113496 92.048 0.0441385 93.2951 0.00630666L93.2919 0ZM93.7201 1.7844C96.7955 1.50697 101.058 1.98617 103.899 2.58203C106.79 3.17684 109.595 4.1376 112.247 5.44148C116.585 7.538 121.683 11.7909 122.545 17.4972C123.083 21.0408 121.983 23.9287 120.429 26.2774C115.954 33.0304 105.931 36.3785 97.4674 36.7537C90.5916 37.0689 84.219 35.7543 78.8903 33.1029C74.4367 30.896 69.458 26.8322 68.5485 21.0881C67.439 14.0545 72.749 9.16792 76.4213 6.80343C78.8241 5.29269 81.4231 4.12559 84.144 3.33551C88.0382 2.19425 89.7603 2.1375 93.717 1.7781L93.7201 1.7844Z" fill="#1F3D87"/>
<path fill-rule="evenodd" clip-rule="evenodd" d="M107.275 12.4088C104.734 12.6989 102.437 13.5627 100.821 14.8049C99.3989 15.902 97.583 18.0836 98.6738 20.9841C100.737 26.4634 111.819 28.0649 117.367 23.73C123.767 18.7331 117.104 11.2865 107.275 12.4088Z" fill="#1F3D87"/>
<path fill-rule="evenodd" clip-rule="evenodd" d="M44.0488 48.8473C44.0488 54.6072 50.3651 55.408 53.1936 52.7881C53.6447 52.3671 54.0007 51.8532 54.2375 51.2811C55.5314 48.5762 54.1156 45.269 51.7591 44.4084C49.6744 43.6517 47.1398 43.7463 45.5708 45.3321C45.0926 45.7821 44.7108 46.3262 44.449 46.9307C44.1873 47.5353 44.051 48.1876 44.0488 48.8473ZM46.5147 49.3107V48.923C46.5028 48.3533 46.6583 47.7929 46.9615 47.3122C47.2647 46.8314 47.7021 46.4519 48.2186 46.2214C48.7351 45.9909 49.3077 45.9196 49.8643 46.0166C50.4209 46.1136 50.9366 46.3746 51.3465 46.7666C53.0748 48.51 52.206 52.186 49.3619 52.186C48.9899 52.1827 48.6223 52.1037 48.2813 51.9536C47.9402 51.8035 47.6328 51.5855 47.3773 51.3127C46.8357 50.7873 46.5203 50.0684 46.4991 49.3107H46.5147Z" fill="#1F3D87"/>
<path fill-rule="evenodd" clip-rule="evenodd" d="M79.2153 47.6051C79.2153 46.5143 79.1372 46.7508 77.1369 46.7508C76.6994 46.7508 76.9838 47.6965 76.9838 48.614V54.0491H79.4466V49.7773C79.4466 48.201 80.8343 48.1537 80.8343 49.3107V54.0397H83.297V52.1071C83.297 51.5522 83.3627 51.237 83.3752 50.7893C83.4064 49.7237 83.0626 48.5352 84.0659 48.5352C84.5941 48.5352 84.6909 49.0175 84.6909 49.5472V54.0491H87.2319V50.0106C87.2319 48.5698 87.0193 47.3498 86.0567 46.8579C85.6608 46.6711 85.2218 46.597 84.7872 46.6437C84.3526 46.6904 83.9388 46.8561 83.5908 47.1228C83.3502 47.3025 83.2033 47.4759 82.997 47.6146C82.7438 46.6688 81.1405 46.322 80.0467 46.9651C79.6997 47.1701 79.506 47.4254 79.2247 47.6146" fill="#1F3D87"/>
<path fill-rule="evenodd" clip-rule="evenodd" d="M109.163 57H107.462C107.043 57.0001 106.628 56.921 106.237 56.7667C106.237 56.1582 106.575 55.6349 106.622 55.0579C107.081 55.0989 107.337 55.2912 107.853 55.2912C109.284 55.2912 109.625 55.0012 109.625 53.428C108.844 53.9577 108.981 53.9703 107.931 53.9703C106.325 53.9703 105.621 52.0282 105.621 50.4771C105.621 48.7432 106.606 46.6719 108.084 46.6719C109.563 46.6719 109.391 46.8957 109.934 47.5263C109.991 47.2803 110.031 46.9934 110.088 46.7507H112.244C112.244 47.892 112.166 48.822 112.166 50.0105C112.166 51.1234 112.166 52.2395 112.166 53.3524C112.166 54.9665 111.75 56.0542 110.447 56.6658C110.045 56.8613 109.608 56.9749 109.163 57ZM108.084 50.5559C108.084 47.9456 109.625 48.286 109.625 49.235V51.6436C109.625 52.4948 108.084 52.788 108.084 50.5559Z" fill="#1F3D87"/>
<path fill-rule="evenodd" clip-rule="evenodd" d="M151.199 49.0017C151.188 49.6966 151.319 50.3862 151.583 51.0281C151.847 51.6701 152.238 52.2507 152.733 52.7345C154.743 54.7648 158.337 54.481 160.743 53.1947V51.2559C160.465 51.3221 160.096 51.4892 159.771 51.5963C158.246 52.1102 155.74 52.684 154.536 51.1487C153.436 49.7457 153.718 47.6019 154.683 46.7728C155.73 45.8743 156.712 45.7955 158.056 45.972C158.853 46.0729 158.74 45.972 158.74 47.0628C159.85 47.0628 160.665 47.2362 160.665 46.8295V44.8118C160.665 44.5754 160.612 44.6479 160.453 44.5628C159.312 43.9323 157.734 43.8787 156.434 43.8787C155.064 43.917 153.75 44.4315 152.714 45.3352C152.23 45.8124 151.846 46.3834 151.585 47.014C151.325 47.6446 151.193 48.3217 151.199 49.0049" fill="#1F3D87"/>
<path fill-rule="evenodd" clip-rule="evenodd" d="M1.08478e-05 48.614C1.08478e-05 50.4362 0.234414 51.5522 1.63457 52.8669C3.55042 54.6639 7.49775 54.5252 9.46672 53.1822V51.2559C8.57599 51.6878 6.30386 52.2837 5.21936 52.126C3.73481 51.9085 2.61594 50.7925 2.61594 49.3927C2.61594 48.1159 2.61594 47.6367 3.55354 46.694C4.80369 45.4329 6.60702 46.0635 7.46337 46.0635C7.46337 47.3466 7.11958 47.0723 9.38859 47.0723C9.38859 44.38 9.76988 44.6732 8.10719 44.1719C6.17259 43.5855 3.05349 43.7778 1.59395 45.2659C1.14244 45.6495 0.769758 46.1186 0.496944 46.6467C0.20065 47.2663 0.0306082 47.9395 -0.00311279 48.6266" fill="#1F3D87"/>
<path fill-rule="evenodd" clip-rule="evenodd" d="M177.68 44.0331V54.0491C179.996 54.0491 179.827 54.3108 179.911 53.2735C180.174 53.4501 180.224 53.6897 180.514 53.9041C181.765 54.8499 184.224 53.5888 184.224 50.8586C184.224 49.7867 184.293 48.6013 183.718 47.7059C182.99 46.5899 182.596 46.653 181.53 46.653C181.273 46.6958 181.027 46.7924 180.808 46.9367C180.521 47.1069 180.474 47.252 180.221 47.4285V43.7998H177.911C177.733 43.7998 177.68 43.8534 177.68 44.0331ZM180.911 52.3403C179.952 52.3403 180.221 50.682 180.221 49.3106C180.221 48.2577 181.761 48.1095 181.761 50.0105C181.761 50.701 181.846 52.3403 180.911 52.3403Z" fill="#1F3D87"/>
<path fill-rule="evenodd" clip-rule="evenodd" d="M135.49 47.293C134.903 46.858 135.444 46.6625 133.875 46.6625C133.059 46.6625 132.384 47.3845 132.056 47.9236C131.04 49.6292 131.265 54.1816 134.028 54.1816C134.687 54.1816 135.512 53.8317 135.647 53.3272H135.8C135.843 53.5582 135.87 53.7922 135.878 54.0271C136.54 54.1262 137.211 54.1526 137.878 54.1059C138.191 54.1059 138.138 53.8159 138.094 53.5101C137.963 52.6494 138.031 45.2407 138.031 43.7778H135.49V47.293ZM134.865 48.5352C135.036 48.5564 135.193 48.6389 135.307 48.7675C135.422 48.896 135.487 49.0621 135.49 49.2351C135.49 50.162 135.728 52.3404 135.031 52.3404H134.719C133.778 52.3404 133.64 48.5352 134.875 48.5352H134.865Z" fill="#1F3D87"/>
<path fill-rule="evenodd" clip-rule="evenodd" d="M190.922 48.6613C190.694 48.0496 190.609 47.665 189.9 47.1574C188.387 46.0635 185.424 46.6877 184.871 49.4999C184.352 52.1355 185.44 54.2131 188.309 54.2068C189.828 54.2068 190.075 53.9514 190.772 53.8915C190.772 51.6847 191.05 52.3562 189.384 52.4886C188.281 52.5769 187.231 52.4476 187.231 51.4072H191.003C191.003 51.8801 191.003 51.6437 191.003 50.8492V48.8946L190.922 48.6613ZM188.075 48.2987C188.859 48.2987 188.847 49.3485 188.847 49.853C187.318 49.853 186.868 50.1525 187.312 48.9261C187.363 48.7577 187.462 48.6084 187.598 48.4972C187.733 48.3861 187.898 48.318 188.072 48.3019L188.075 48.2987Z" fill="#1F3C86"/>
<path fill-rule="evenodd" clip-rule="evenodd" d="M20.2461 47.6051C20.2461 46.5143 20.1679 46.7507 18.1677 46.7507C17.7645 46.7507 18.0146 47.2741 18.0146 47.6965V54.0649H20.5524V49.5471C20.5524 48.2009 22.0181 48.2861 22.0181 49.3107V54.0397H24.5559V49.9349C24.5559 47.6808 23.7152 46.117 21.54 46.735C20.7774 46.9525 20.5617 47.3907 20.2461 47.6051Z" fill="#1F3D87"/>
<path fill-rule="evenodd" clip-rule="evenodd" d="M122.636 47.2141V48.9228C122.948 48.8503 123.333 48.6517 123.645 48.5445C124.314 48.3144 125.946 47.9455 125.946 49.1561C124.07 49.3138 122.173 49.7867 122.173 52.0314C122.168 52.3183 122.221 52.6033 122.327 52.8694C122.434 53.1355 122.592 53.3771 122.794 53.5799C122.995 53.7827 123.235 53.9424 123.499 54.0496C123.763 54.1567 124.045 54.2091 124.33 54.2035C125.361 54.2035 125.655 53.8315 126.255 53.428C126.618 54.1941 125.596 54.0585 128.64 54.0585L128.49 51.7255C128.362 50.1492 128.896 48.6044 127.736 47.4348C126.761 46.4512 124.924 46.5615 123.674 46.8831C123.248 46.9903 122.961 47.1479 122.627 47.2236L122.636 47.2141ZM124.474 51.653C124.474 50.7072 125.68 50.641 126.014 50.5654C126.014 50.9468 126.046 51.5112 126.014 51.88C125.911 52.8605 124.483 52.8101 124.483 51.6436L124.474 51.653Z" fill="#1F3D87"/>
<path fill-rule="evenodd" clip-rule="evenodd" d="M35.0259 47.2141V48.9229C35.1975 48.8759 35.3632 48.8093 35.5197 48.7242C36.2104 48.4405 38.3325 47.7595 38.3325 49.1562C37.4675 49.1809 36.6167 49.3836 35.8322 49.752C33.2444 51.1991 34.8321 55.3038 37.8481 53.9608C38.1606 53.8189 38.3294 53.51 38.6294 53.428L38.7075 54.0585H41.0172C40.5546 52.0534 41.4922 48.8157 40.114 47.438C39.1326 46.4543 37.3011 46.5647 36.051 46.8863C35.6259 46.9934 35.3384 47.1511 35.004 47.2267L35.0259 47.2141ZM36.8542 51.8107C36.8542 50.6442 37.7918 50.7104 38.3919 50.5685C38.4186 51.0284 38.4186 51.4895 38.3919 51.9494C38.2481 52.9141 36.8761 52.6651 36.8761 51.7981L36.8542 51.8107Z" fill="#1F3D87"/>
<path fill-rule="evenodd" clip-rule="evenodd" d="M161.975 47.2142V48.9229C162.706 48.5698 164.119 47.9771 164.922 48.5131C165.203 48.6991 165.203 48.8031 165.285 49.1436C164.804 49.1725 164.325 49.2357 163.853 49.3328C160.262 50.1335 161.068 54.191 163.591 54.191C164.16 54.2147 164.72 54.0386 165.175 53.6929C165.403 53.5164 165.316 53.4911 165.594 53.4155L165.685 54.046H167.904C167.904 53.8285 167.835 53.1916 167.794 52.9142C167.566 51.3536 168.232 48.5856 167.038 47.3844C165.935 46.2684 163.237 46.6026 161.975 47.211V47.2142ZM165.285 50.5528C165.285 50.9469 165.325 51.5901 165.285 51.9526C165.178 52.9899 163.378 52.6746 163.85 51.2843C164.063 50.7073 164.688 50.6947 165.285 50.556V50.5528Z" fill="#1F3D87"/>
<path fill-rule="evenodd" clip-rule="evenodd" d="M66.2826 47.2142V48.9229C66.9702 48.5919 68.4704 47.9771 69.2267 48.5194C69.583 48.7779 69.433 48.8189 69.5924 49.1499C68.8329 49.1688 67.6203 49.3801 66.9889 49.7805C64.3043 51.5018 66.342 55.2472 69.0548 53.964C69.6205 53.6992 69.5455 53.5163 69.9018 53.4186C69.9111 53.6304 69.9362 53.8412 69.9768 54.0491H72.2114C71.6707 51.7099 72.8677 48.4185 70.9831 47.1354C69.7986 46.3283 67.4359 46.6562 66.2951 47.2142H66.2826ZM68.9142 52.5737C67.9359 52.5737 67.7015 51.1172 68.8423 50.7168C69.8018 50.3795 69.683 50.6632 69.683 51.2527C69.6767 51.7918 69.5767 52.5737 68.9017 52.5737H68.9142Z" fill="#1F3D87"/>
<path fill-rule="evenodd" clip-rule="evenodd" d="M98.5394 50.2438C98.5394 52.5421 99.3333 54.2036 101.849 54.2036C103.818 54.2036 105.006 52.7061 105.006 50.7104V50.0105C105.006 48.3144 103.812 46.6719 102.159 46.6719C101.002 46.6719 100.19 46.757 99.3301 47.7816C98.8138 48.4967 98.5368 49.3592 98.5394 50.2438ZM101.849 52.4948C100.599 52.4948 100.865 48.3806 101.696 48.3806H101.927C102.715 48.3806 102.831 52.4948 101.849 52.4948Z" fill="#1F3D87"/>
<path fill-rule="evenodd" clip-rule="evenodd" d="M90.9948 54.2036C94.9234 54.2036 94.8984 49.6322 93.6451 47.8037C92.3012 45.8459 87.8507 46.1517 87.8476 50.4771C87.8476 52.3908 88.8227 54.2036 90.9948 54.2036ZM91.1479 52.4948C90.2635 52.4948 90.3791 50.6411 90.3791 49.9349C90.3791 47.9834 91.9199 47.5168 91.9199 50.3227C91.9199 50.9406 91.9199 52.4948 91.1479 52.4948Z" fill="#1F3D87"/>
<path fill-rule="evenodd" clip-rule="evenodd" d="M138.725 50.3983V50.8649C138.725 54.0176 141.372 54.4747 143.776 54.0964C144.926 53.9136 144.713 53.9577 144.713 52.4949C144.713 52.1165 144.213 52.3688 143.932 52.4066C142.994 52.5264 141.207 52.7471 141.097 51.4103H144.945C145.192 50.3479 145.029 48.4847 144.288 47.5673C143.323 46.3724 141.144 46.3566 139.882 47.542L139.719 47.6902L139.678 47.728C139.024 48.4572 138.676 49.415 138.71 50.3983H138.725ZM141.944 48.3018C142.498 48.3018 142.788 48.8283 142.788 49.3895V49.8561H141.097C141.113 49.2003 141.372 48.3018 141.96 48.3018H141.944Z" fill="#1F3D87"/>
<path fill-rule="evenodd" clip-rule="evenodd" d="M55.8908 46.7507H54.8125C54.8125 48.6896 54.5469 48.3806 55.8908 48.3806V54.0554H58.4254V48.3018C60.1069 48.3018 59.81 48.595 59.81 46.984C59.81 46.6183 59.338 46.7507 58.4254 46.7507V46.4354C58.4254 44.9474 60.0412 45.8648 60.0412 45.2721C60.0412 43.4908 60.2975 43.639 58.7317 43.639C56.9409 43.639 55.8845 44.8276 55.8845 46.7475" fill="#1F3D87"/>
<path fill-rule="evenodd" clip-rule="evenodd" d="M61.2008 45.6631V46.8422H60.2788V48.3964H61.2008V51.6594C61.2008 54.0365 62.8072 54.4022 64.6168 54.1815C65.2418 54.0996 65.1293 54.4211 65.1293 52.3656C63.4041 52.3656 63.7417 52.2048 63.7417 48.4059H65.2825V46.8422C63.3698 46.8422 63.7417 47.2362 63.7417 44.8245L61.7227 45.351C61.4664 45.4109 61.2008 45.414 61.2008 45.6662" fill="#1F3D87"/>
<path fill-rule="evenodd" clip-rule="evenodd" d="M94.8453 43.7998H94.3046V44.8875H95.2422V54.0491H97.7831V43.9606C97.7831 43.5507 96.708 43.7084 96.4173 43.7494C95.8982 43.802 95.3762 43.821 94.8546 43.8061" fill="#1F3D87"/>
<path fill-rule="evenodd" clip-rule="evenodd" d="M145.345 43.7998H144.885V44.8875H145.732V54.0491H148.27V43.9606C148.27 43.6611 148.026 43.7178 147.739 43.721L145.345 43.7998Z" fill="#1F3D87"/>
<path fill-rule="evenodd" clip-rule="evenodd" d="M72.8271 43.7998H72.2864C72.2864 45.0924 72.0895 44.8875 73.2896 44.8875V54.0491H75.7524V43.9606C75.7524 43.6611 75.5055 43.7178 75.2211 43.721L72.8271 43.7998Z" fill="#1F3D87"/>
<path fill-rule="evenodd" clip-rule="evenodd" d="M10.1606 43.7998H9.698V44.8875C10.3543 44.8875 10.6356 44.796 10.6356 45.1176V54.0491H13.0984V43.9606C13.0984 43.6611 12.8546 43.7178 12.5671 43.721L10.1606 43.7998Z" fill="#1F3D87"/>
<path fill-rule="evenodd" clip-rule="evenodd" d="M116.557 50.2438V50.9405C116.557 54.7899 121.483 54.4621 121.483 53.8126C121.483 51.8989 121.62 52.3277 120.717 52.3403C120.251 52.3403 120.032 52.3592 119.742 52.1543C118.576 51.3346 118.789 48.5319 120.483 48.5319C120.995 48.5319 121.151 48.6107 121.639 48.6107C121.639 46.8673 121.93 46.6687 120.408 46.6687C118.304 46.6687 116.557 48.1599 116.557 50.2407" fill="#1F3D87"/>
<path fill-rule="evenodd" clip-rule="evenodd" d="M28.9439 50.4772C28.9439 52.8038 30.1566 54.2036 32.485 54.2036C32.95 54.1783 33.4133 54.1267 33.8726 54.0491V52.2647C33.1288 52.4381 32.2224 52.4476 31.7568 51.7571C31.0129 50.6474 31.4942 48.5351 32.8725 48.5351C33.3851 48.5351 33.5382 48.614 34.0258 48.614V46.8422C33.4507 46.8422 32.1224 46.2904 30.5879 47.3214C30.3878 47.4534 30.1968 47.5987 30.0159 47.7564C29.3204 48.4929 28.9398 49.4758 28.9564 50.4929" fill="#1F3D87"/>
<path fill-rule="evenodd" clip-rule="evenodd" d="M171.135 47.7595C171.059 47.4276 171.008 47.0904 170.982 46.7507H168.826C168.826 47.3812 168.904 47.7217 168.904 48.3806V54.0554H171.445V50.31C171.418 49.9699 171.52 49.6323 171.729 49.3642C172.207 48.8157 172.56 48.9197 173.292 48.9197V46.6687C172.589 46.6687 172.592 46.4859 171.963 46.8831C171.426 47.2267 171.438 47.5325 171.135 47.7564" fill="#1F3D87"/>
<path d="M28.2532 46.7507H25.7123V54.0491H28.2532V46.7507Z" fill="#1F3D87"/>
<path d="M176.527 46.7507H173.986V54.0491H176.527V46.7507Z" fill="#1F3D87"/>
<path fill-rule="evenodd" clip-rule="evenodd" d="M14.3173 54.0491H16.8582V46.984C16.8582 46.8043 16.805 46.7507 16.6269 46.7507H14.3173V54.0491Z" fill="#1F3D87"/>
<path d="M115.86 46.7507H113.397V54.0491H115.86V46.7507Z" fill="#1F3D87"/>
<path fill-rule="evenodd" clip-rule="evenodd" d="M25.8655 44.7298C25.8655 46.4449 28.1001 46.0729 28.1001 44.9632C28.1001 43.2008 25.8655 43.5854 25.8655 44.7298Z" fill="#1F3D87"/>
<path fill-rule="evenodd" clip-rule="evenodd" d="M113.475 44.8087C113.475 46.2936 115.707 46.2495 115.707 44.8875C115.707 43.3269 113.475 43.5476 113.475 44.8087Z" fill="#1F3D87"/>
<path fill-rule="evenodd" clip-rule="evenodd" d="M15.7049 43.7998C15.5361 44.1151 15.3924 44.4304 15.208 44.774C15.0923 44.9695 15.0267 45.0893 14.933 45.2721C14.8392 45.455 14.7892 45.641 14.7048 45.8176C16.6925 45.8176 15.9549 46.0887 17.5583 44.1088C17.752 43.866 17.9521 43.7652 17.4832 43.7147L15.7049 43.7998Z" fill="#1F3D87"/>
<path fill-rule="evenodd" clip-rule="evenodd" d="M174.214 44.6542C174.214 45.4424 174.348 45.8964 175.448 45.8964C176.548 45.8964 176.911 43.7999 175.217 43.7999C174.972 43.7814 174.73 43.8606 174.542 44.0203C174.355 44.1801 174.237 44.4077 174.214 44.6542Z" fill="#1F3D87"/>
<path fill-rule="evenodd" clip-rule="evenodd" d="M102.39 43.7998L101.452 45.8175H102.993C103.139 45.5153 103.332 45.2386 103.565 44.9978C104.412 43.8629 104.856 43.5949 103.778 43.7368C103.313 43.7908 102.845 43.814 102.377 43.8061" fill="#1F3D87"/>
</g>
<defs>
<clipPath id="clip0">
<rect width="191" height="57" fill="white"/>
</clipPath>
</defs>
</svg>
