<svg width="46" height="46" viewBox="0 0 46 46" fill="none" xmlns="http://www.w3.org/2000/svg">
<path d="M36.5 16.25V23V16.25ZM36.5 23V29.75V23ZM36.5 23H43.25H36.5ZM36.5 23H29.75H36.5ZM25.25 11.75C25.25 14.1369 24.3018 16.4261 22.614 18.114C20.9261 19.8018 18.6369 20.75 16.25 20.75C13.8631 20.75 11.5739 19.8018 9.88604 18.114C8.19821 16.4261 7.25 14.1369 7.25 11.75C7.25 9.36305 8.19821 7.07387 9.88604 5.38604C11.5739 3.69821 13.8631 2.75 16.25 2.75C18.6369 2.75 20.9261 3.69821 22.614 5.38604C24.3018 7.07387 25.25 9.36305 25.25 11.75V11.75ZM2.75 41C2.75 37.4196 4.17232 33.9858 6.70406 31.4541C9.2358 28.9223 12.6696 27.5 16.25 27.5C19.8304 27.5 23.2642 28.9223 25.7959 31.4541C28.3277 33.9858 29.75 37.4196 29.75 41V43.25H2.75V41Z" stroke="#F7F7F7" stroke-width="4.5" stroke-linecap="round" stroke-linejoin="round"/>
</svg>
